# xmcd CD database file
#
# Track frame offsets:
#	150
#	20735
#	40245
#
# Disc length: 739 seconds
#
# Revision: 2
# Processed by: cddbd v1.5.2PL0 Copyright (c) Steve Scherf et al.
# Submitted via: CDex 1.70beta2
#
DISCID=1f02e103
DTITLE=やなわらばー - 空をこえて　海をこえて
DYEAR=2005
DGENRE=Pop
TTITLE0=空をこえて　海をこえて
TTITLE1=花キラキラ
TTITLE2=帰り道
EXTD=YEAR: 2005
EXTT0=
EXTT1=
EXTT2=
PLAYORDER=
